<?xml version="1.0" encoding="UTF-8"?>
<svg xmlns="http://www.w3.org/2000/svg" version="1.1" viewBox="0 0 1219.7 381.1">
  <defs>
    <style>
      .cls-1 {
        fill: #1d1d1b;
      }

      .cls-1, .cls-2 {
        stroke-width: 0px;
      }

      .cls-2 {
        fill: #009ace;
      }
    </style>
  </defs>
  <g id="P">
    <path class="cls-2" d="M199.3,28.1l38.3,4.8,45.3,87-45.3,73.1s-51.7,13.5-71.5,18.3h-45.1v117.8l36.5,12.9-.9,12.6-64.9-.9-65.1.9-1.4-12.6,36.8-12.9V53.3l-36.8-12.7,1.4-12.6h172.7ZM121,186.2l37.7,7.2,58.2-40.6,18-32.9-18-33.1-58.2-38.4-37.7,5v132.8Z"/>
  </g>
  <g id="Prototype_Fund">
    <g>
      <g>
        <path class="cls-1" d="M384.2,31.5h35.9c28.2,0,52.2,14.1,52.2,42s-25.5,43.3-54,43.3h-14.7v52.2h-19l-.3-137.5ZM403.2,100.9l15-.3c12.6,0,34.1-4.6,34.1-27s-20.9-26.4-31.9-26.4l-17.2-.3v54Z"/>
        <path class="cls-1" d="M486.7,98.4c0-8.6-.3-16.9-1.2-24.9h17.2l.9,24.9h1.2c3.4-12.3,13.8-26.4,27.9-26.4s9.2,1.2,12.3,2.8v16.3c-2.8-1.2-6.8-2.5-10.7-2.5-18.1,0-28.2,17.8-29.5,38.1v42.4h-18.1v-70.6Z"/>
        <path class="cls-1" d="M598.4,70.8c32.8,0,47,28.8,47,50.3s-16.6,50.9-47,50.9-47.9-24.2-47.9-50.9,14.7-50.3,47.9-50.3ZM598.1,158.6c14.7,0,28.5-11.7,28.5-37.7s-13.2-36.5-28.5-36.5-28.8,8-28.8,36.8,8.9,37.4,28.8,37.4Z"/>
        <path class="cls-1" d="M653.7,73.2h15.7l3.4-28.5h14.1v28.5h27v13.8h-27v54c0,8.6,4.3,13.8,13.2,13.8s11.4-1.8,13.8-2.8v14.1c-3.4,2.1-9.5,4.9-16,4.9-18.4,0-28.8-11-28.8-29.5v-54h-15.3v-14.4Z"/>
        <path class="cls-1" d="M771.2,70.8c32.8,0,47,28.8,47,50.3s-16.6,50.9-47,50.9-47.9-24.2-47.9-50.9,15-50.3,47.9-50.3ZM770.9,158.6c14.7,0,28.5-11.7,28.5-37.7s-13.2-36.5-28.5-36.5-28.8,8-28.8,36.8,8.9,37.4,28.8,37.4Z"/>
        <path class="cls-1" d="M826.8,73.2h15.7l3.4-28.5h14.1v28.5h27v13.8h-27v54c0,8.6,4.3,13.8,13.2,13.8s11.4-1.8,13.8-2.8v14.1c-3.4,2.1-9.5,4.9-16,4.9-18.4,0-28.8-11-28.8-29.5v-54h-15.3v-14.4Z"/>
        <path class="cls-1" d="M945.2,188c-5.8,14.7-15.3,19.3-27,19.3s-9.2-.6-12.6-1.8v-15.3c2.8.9,7.7,1.8,10.4,1.8,6.1,0,9.8-2.1,12.6-7.7,1.8-4,4.9-12.3,5.8-15.3.9-4.3-1.8-6.8-5.5-6.4l-34.4-89h19.9l26.7,75.8h1.2l23.3-75.8h18.7c-32.5,95.4-35,102.5-39.3,114.5Z"/>
        <path class="cls-1" d="M1014.3,205.5h-17.8v-118.2c0-4-.3-10.4-.3-14.1h16.9c.3,3.7.3,10.7.3,14.4h1.2c6.4-9.8,15.7-16,28.2-16,26.4,0,40.8,23.3,40.8,50s-14.7,50-39.9,50-25.5-11.4-28.2-15.3h-1.2s.3,6.8.3,12.9l-.3,36.2ZM1038.5,85.5c-13.2,0-23.3,13.8-24.2,23.9v23c.3,10.4,9.8,25.5,24.9,25.5s25.5-16.6,25.5-36.2c0-21.8-8.6-36.2-26.1-36.2Z"/>
        <path class="cls-1" d="M1108.8,123.6c.3,19.9,9.8,34.4,27.9,34.4s20.6-7.7,22.7-18.4h17.5c-2.1,15.7-16.3,32.2-41.4,32.2s-44.8-20.3-44.8-51.6,16.9-49.4,43.6-49.4,44.8,30.4,42.4,52.8h-67.8ZM1159.1,110.4c.3-9.2-4.9-26.4-24.2-26.4s-23.9,9.2-25.5,26.7l49.7-.3Z"/>
      </g>
      <g>
        <path class="cls-1" d="M384.2,211h76.7v16.3h-57.1v45.4h54v16h-54v59.8h-19.3l-.3-137.5Z"/>
        <path class="cls-1" d="M557.6,253.1v79.2c0,4.9.3,11.4,1.2,16.3h-18.4c-.3-4-.3-11-.3-16.6h-1.2c-2.1,4-11.7,17.8-31,17.8s-32.5-7.1-32.5-35.9v-61.1h18.4v61.1c0,12.6,5.8,21.2,18.1,21.2s24.2-11.4,27.3-27.9v-54.3h18.4v.3Z"/>
        <path class="cls-1" d="M575.4,269.4c0-4.9-.3-10.7-.9-16.3h18.4v16.3h1.2c2.5-4.3,12.9-18.4,31-18.4s31.6,6.1,31.6,35.3v62.3h-18.4v-62.6c0-13.2-5.8-20.9-16.9-20.9s-24.2,12.3-27.9,27.9v55.6h-18.1v-79.2Z"/>
        <path class="cls-1" d="M736.8,211h17.8v123.4c0,4,0,10.4.3,14.1h-16.3c-.3-4-.3-9.8-.3-14.1h-1.2c-6.4,9.8-16,15.7-28.2,15.7-26.7,0-41.4-23.3-41.4-50s14.7-50,39.9-50,25.5,11.4,28.2,15.3h1.2s-.3-6.4-.3-12.9l.3-41.4ZM712.9,336.6c13.2,0,23.3-13.8,23.9-23.6v-23.3c-.3-10.4-9.8-25.5-24.9-25.5s-25.5,16.6-25.5,36.2c.3,21.8,8.9,36.2,26.4,36.2Z"/>
      </g>
    </g>
  </g>
</svg>